<svg xmlns="http://www.w3.org/2000/svg" style="display: none;">
    <symbol id="stats" viewBox="0 0 511 511.99991">
        <title>stats</title>
        <linearGradient xmlns="http://www.w3.org/2000/svg" id="a">
            <stop stop-opacity="1" stop-color="#ffffff" offset="0"/>
            <stop stop-opacity="1" stop-color="#ffffff" offset="0.437"/>
            <stop stop-opacity="1" stop-color="#ffffff" offset="1"/>
        </linearGradient>
        <linearGradient xmlns="http://www.w3.org/2000/svg"
            xmlns:xlink="http://www.w3.org/1999/xlink" id="b" gradientTransform="matrix(1.099711 0 0 -1.099711 .496656 504.196344)" gradientUnits="userSpaceOnUse" x1="36.8607" x2="464.4178" xlink:href="#a" y1="456.5351" y2="28.978"/>
        <linearGradient xmlns="http://www.w3.org/2000/svg"
            xmlns:xlink="http://www.w3.org/1999/xlink" id="c" gradientTransform="matrix(1.099711 0 0 -1.099711 .496656 504.196344)" gradientUnits="userSpaceOnUse" x1="21.3417" x2="448.8987" xlink:href="#a" y1="441.016" y2="13.459"/>
        <linearGradient xmlns="http://www.w3.org/2000/svg"
            xmlns:xlink="http://www.w3.org/1999/xlink" id="d" gradientTransform="matrix(1.099711 0 0 -1.099711 .496656 504.196344)" gradientUnits="userSpaceOnUse" x1="-1.9369" x2="425.6202" xlink:href="#a" y1="417.7375" y2="-9.8196"/>
        <linearGradient xmlns="http://www.w3.org/2000/svg"
            xmlns:xlink="http://www.w3.org/1999/xlink" id="e" gradientTransform="matrix(1.099711 0 0 -1.099711 .496656 504.196344)" gradientUnits="userSpaceOnUse" x1="-17.4559" x2="410.1012" xlink:href="#a" y1="402.2184" y2="-25.3386"/>
        <linearGradient xmlns="http://www.w3.org/2000/svg"
            xmlns:xlink="http://www.w3.org/1999/xlink" id="f" gradientTransform="matrix(1.099711 0 0 -1.099711 .496656 504.196344)" gradientUnits="userSpaceOnUse" x1="-93.1112" x2="334.4459" xlink:href="#a" y1="326.5632" y2="-100.9938"/>
        <linearGradient xmlns="http://www.w3.org/2000/svg"
            xmlns:xlink="http://www.w3.org/1999/xlink" id="g" gradientTransform="matrix(1.099711 0 0 -1.099711 .496656 504.196344)" gradientUnits="userSpaceOnUse" x1="43.6509" x2="471.208" xlink:href="#a" y1="463.3253" y2="35.7683"/>
        <linearGradient xmlns="http://www.w3.org/2000/svg"
            xmlns:xlink="http://www.w3.org/1999/xlink" id="h" gradientTransform="matrix(1.099711 0 0 -1.099711 .496656 504.196344)" gradientUnits="userSpaceOnUse" x1="-149.3677" x2="278.1894" xlink:href="#a" y1="270.3067" y2="-157.2503"/>
        <linearGradient xmlns="http://www.w3.org/2000/svg"
            xmlns:xlink="http://www.w3.org/1999/xlink" id="i" gradientTransform="matrix(1.099711 0 0 -1.099711 .496656 504.196344)" gradientUnits="userSpaceOnUse" x1="-100.8707" x2="326.6864" xlink:href="#a" y1="318.8036" y2="-108.7534"/>
        <linearGradient xmlns="http://www.w3.org/2000/svg"
            xmlns:xlink="http://www.w3.org/1999/xlink" id="j" gradientTransform="matrix(1.099711 0 0 -1.099711 .496656 504.196344)" gradientUnits="userSpaceOnUse" x1="-48.494" x2="379.0631" xlink:href="#a" y1="371.1804" y2="-56.3766"/>
        <linearGradient xmlns="http://www.w3.org/2000/svg"
            xmlns:xlink="http://www.w3.org/1999/xlink" id="k" gradientTransform="matrix(1.099711 0 0 -1.099711 .496656 504.196344)" gradientUnits="userSpaceOnUse" x1="7.7625" x2="435.3196" xlink:href="#a" y1="427.4369" y2="-.1202"/>
        <linearGradient xmlns="http://www.w3.org/2000/svg"
            xmlns:xlink="http://www.w3.org/1999/xlink" id="l" gradientTransform="matrix(1.099711 0 0 -1.099711 .496656 504.196344)" gradientUnits="userSpaceOnUse" x1="77.5982" x2="505.1552" xlink:href="#a" y1="497.2725" y2="69.7155"/>
        <path xmlns="http://www.w3.org/2000/svg" d="m43.167969 51.207031h110.929687v17.066407h-110.929687zm0 0" fill="url(#b)" data-original="url(#b)" style=""/>
        <path xmlns="http://www.w3.org/2000/svg" d="m43.167969 85.339844h110.929687v17.066406h-110.929687zm0 0" fill="url(#c)" data-original="url(#c)" style=""/>
        <path xmlns="http://www.w3.org/2000/svg" d="m43.167969 119.472656h76.796875v17.066406h-76.796875zm0 0" fill="url(#d)" data-original="url(#d)" style=""/>
        <path xmlns="http://www.w3.org/2000/svg" d="m43.167969 153.605469h76.796875v17.066406h-76.796875zm0 0" fill="url(#e)" data-original="url(#e)" style=""/>
        <path xmlns="http://www.w3.org/2000/svg" d="m.5 494.933594h511.992188v17.066406h-511.992188zm0 0" fill="url(#f)" data-original="url(#f)" style=""/>
        <path xmlns="http://www.w3.org/2000/svg" d="m440.378906 69.757812 13.773438-39.355468 25.101562 50.21875c2.109375 4.214844 7.234375 5.929687 11.453125 3.820312 4.21875-2.105468 5.929688-7.234375 3.824219-11.449218l-34.132812-68.265626c-2.105469-4.21875-7.230469-5.929687-11.445313-3.828124-.003906.003906-.003906.003906-.007813.003906l-68.265624 34.132812c-4.214844 2.109375-5.929688 7.234375-3.820313 11.453125 2.105469 4.214844 7.234375 5.929688 11.449219 3.820313l49.441406-24.703125-13.488281 38.519531c-59.300781 168.878906-212.035157 287.359375-390.355469 302.808594l1.453125 17.066406c185.039063-16.027344 343.519531-138.988281 405.019531-314.242188zm0 0" fill="url(#g)" data-original="url(#g)" style=""/>
        <path xmlns="http://www.w3.org/2000/svg" d="m43.167969 409.601562c-4.714844 0-8.535157 3.820313-8.535157 8.535157v51.199219c0 4.710937 3.820313 8.53125 8.535157 8.53125h59.730469c4.714843 0 8.535156-3.820313 8.535156-8.53125v-51.199219c0-4.714844-3.820313-8.535157-8.535156-8.535157zm51.199219 51.199219h-42.667969v-34.132812h42.667969zm0 0" fill="url(#h)" data-original="url(#h)" style=""/>
        <path xmlns="http://www.w3.org/2000/svg" d="m137.03125 384c-4.710938 0-8.535156 3.820312-8.535156 8.535156v76.800782c0 4.710937 3.820312 8.53125 8.535156 8.53125h59.734375c4.710937 0 8.53125-3.820313 8.53125-8.53125v-76.800782c0-4.710937-3.820313-8.535156-8.53125-8.535156zm51.199219 76.800781h-42.667969v-59.734375h42.667969zm0 0" fill="url(#i)" data-original="url(#i)" style=""/>
        <path xmlns="http://www.w3.org/2000/svg" d="m230.898438 341.335938c-4.714844 0-8.535157 3.820312-8.535157 8.535156v119.464844c0 4.710937 3.820313 8.53125 8.535157 8.53125h59.730468c4.714844 0 8.535156-3.820313 8.535156-8.53125v-119.46875c0-4.710938-3.820312-8.53125-8.535156-8.53125zm51.199218 119.464843h-42.667968v-102.398437h42.667968zm0 0" fill="url(#j)" data-original="url(#j)" style=""/>
        <path xmlns="http://www.w3.org/2000/svg" d="m324.761719 281.601562c-4.710938 0-8.53125 3.820313-8.53125 8.535157v179.195312c0 4.714844 3.820312 8.535157 8.53125 8.535157h59.734375c4.710937 0 8.535156-3.820313 8.535156-8.535157v-179.195312c0-4.710938-3.820312-8.53125-8.535156-8.53125h-59.734375zm51.199219 179.199219h-42.664063v-162.132812h42.664063zm0 0" fill="url(#k)" data-original="url(#k)" style=""/>
        <path xmlns="http://www.w3.org/2000/svg" d="m418.628906 162.136719c-4.714844 0-8.535156 3.820312-8.535156 8.535156v298.664063c0 4.710937 3.820312 8.53125 8.535156 8.53125h59.730469c4.714844 0 8.535156-3.820313 8.535156-8.53125v-298.664063c0-4.714844-3.820312-8.535156-8.535156-8.535156zm51.199219 298.664062h-42.667969v-281.597656h42.667969zm0 0" fill="url(#l)" data-original="url(#l)" style=""/>
    </symbol>
    <symbol id="smile" viewBox="0 0 512 512">
        <title>smile</title>
        <path xmlns="http://www.w3.org/2000/svg" d="m375 220c-11.046 0-20-8.954-20-20 0-5.514-4.486-10-10-10s-10 4.486-10 10c0 11.046-8.954 20-20 20s-20-8.954-20-20c0-27.57 22.43-50 50-50s50 22.43 50 50c0 11.046-8.954 20-20 20zm-157-20c0-27.57-22.43-50-50-50s-50 22.43-50 50c0 11.046 8.954 20 20 20s20-8.954 20-20c0-5.514 4.486-10 10-10s10 4.486 10 10c0 11.046 8.954 20 20 20s20-8.954 20-20zm170.461 275.107c9.448-5.723 12.467-18.021 6.745-27.468-5.723-9.448-18.022-12.468-27.468-6.745-33.595 20.35-72.233 31.106-111.738 31.106-119.103 0-216-96.897-216-216s96.897-216 216-216 216 96.897 216 216c0 42.589-12.665 84.044-36.626 119.885-6.139 9.183-3.672 21.603 5.511 27.742 9.183 6.14 21.604 3.671 27.742-5.511 28.374-42.442 43.373-91.585 43.373-142.116 0-68.38-26.629-132.667-74.98-181.02-48.353-48.351-112.64-74.98-181.02-74.98s-132.667 26.629-181.02 74.98c-48.351 48.353-74.98 112.64-74.98 181.02s26.629 132.667 74.98 181.02c48.353 48.351 112.64 74.98 181.02 74.98 46.813 0 92.617-12.757 132.461-36.893zm-46.461-184.107c-6.512 0-12.28 3.127-15.932 7.945 0 0-26.018 28.055-70.068 28.055s-70.068-28.055-70.068-28.055c-3.652-4.818-9.42-7.945-15.932-7.945-11.046 0-20 8.954-20 20 0 5.691 2.388 10.814 6.204 14.456 3.617 4.012 39.099 41.544 99.796 41.544s96.179-37.532 99.796-41.544c3.816-3.642 6.204-8.765 6.204-14.456 0-11.046-8.954-20-20-20z" fill="#ffffff" data-original="#000000" style=""/>
    </symbol>
    <symbol id="rocket" viewBox="0 0 512 512">
        <title>rocket</title>
        <path d="m504.5 448.903h-32.581v-273.064c0-17.396-14.152-31.548-31.548-31.548h-96.19c-4.142 0-7.5 3.358-7.5 7.5s3.358 7.5 7.5 7.5h96.19c9.125 0 16.548 7.424 16.548 16.548v273.065h-25.671c.387-2.832.59-5.682.59-8.532 0-35.076-28.537-63.613-63.613-63.613-4.716 0-9.425.539-14.067 1.606-8.092-15.592-24.211-25.655-42.045-25.655-5.818 0-11.469 1.061-16.789 3.122-2.185-19.764-18.987-35.187-39.324-35.187s-37.139 15.423-39.324 35.187c-5.32-2.061-10.971-3.122-16.789-3.122-17.834 0-33.954 10.063-42.045 25.655-4.643-1.068-9.351-1.606-14.067-1.606-35.077 0-63.613 28.537-63.613 63.613 0 2.851.203 5.7.59 8.532h-25.671v-273.065c0-9.125 7.423-16.548 16.548-16.548h96.193c4.142 0 7.5-3.358 7.5-7.5s-3.358-7.5-7.5-7.5h-96.193c-17.396 0-31.548 14.153-31.548 31.548v273.065h-32.581c-4.142 0-7.5 3.358-7.5 7.5v16.032c0 12.976 10.557 23.532 23.532 23.532h464.936c12.976 0 23.532-10.557 23.532-23.532v-16.032c0-4.143-3.358-7.501-7.5-7.501zm-7.5 23.533c0 4.705-3.828 8.532-8.532 8.532h-464.936c-4.705 0-8.532-3.828-8.532-8.532v-8.532h96.707c4.142 0 7.5-3.358 7.5-7.5s-3.358-7.5-7.5-7.5h-15.778c-.509-2.827-.768-5.681-.768-8.532 0-26.805 21.808-48.613 48.613-48.613 5.339 0 10.685.914 15.89 2.716 1.885.653 3.951.528 5.744-.346 1.792-.875 3.162-2.427 3.808-4.314 4.521-13.221 16.847-22.104 30.672-22.104 7.581 0 14.781 2.683 20.823 7.76 2.551 2.143 6.209 2.347 8.982.5s3.995-5.301 3.001-8.48c-.858-2.746-1.258-5.059-1.258-7.28 0-13.545 11.02-24.564 24.564-24.564s24.564 11.02 24.564 24.564c0 2.221-.4 4.534-1.258 7.28-.994 3.18.229 6.634 3.001 8.48 2.773 1.846 6.431 1.643 8.982-.5 6.042-5.076 13.243-7.76 20.823-7.76 13.825 0 26.151 8.883 30.672 22.104.646 1.887 2.016 3.439 3.808 4.314 1.793.875 3.86 1 5.744.346 5.205-1.802 10.55-2.716 15.89-2.716 26.806 0 48.613 21.808 48.613 48.613 0 2.851-.26 5.705-.768 8.532h-272.294c-4.142 0-7.5 3.358-7.5 7.5s3.358 7.5 7.5 7.5h353.223z" fill="#ffffff" data-original="#000000" style=""/>
        <path d="m159.619 236.494c-4.715 5.658-7.312 12.831-7.312 20.197v23.358c0 2.666 1.416 5.132 3.718 6.477 1.168.682 2.475 1.023 3.782 1.023 1.271 0 2.542-.322 3.686-.968l53.41-30.137c2.035 3.716 4.193 7.372 6.472 10.961l-6.714 26.857c-.561 2.241-.057 4.614 1.364 6.435s3.602 2.885 5.912 2.885h64.129c2.31 0 4.49-1.064 5.912-2.885 1.421-1.82 1.925-4.194 1.364-6.435l-6.714-26.857c2.279-3.589 4.437-7.244 6.472-10.961l53.41 30.137c1.145.646 2.415.968 3.686.968 1.307 0 2.614-.342 3.782-1.023 2.302-1.344 3.718-3.81 3.718-6.477v-23.358c0-7.366-2.597-14.539-7.312-20.197l-35.604-42.711c1.875-11.141 2.835-22.5 2.835-33.976 0-27.351-5.295-53.789-15.738-78.578-10.072-23.908-24.409-45.118-42.613-63.041-2.919-2.874-7.604-2.874-10.523 0-18.204 17.922-32.541 39.132-42.613 63.041-10.443 24.79-15.738 51.227-15.738 78.578 0 11.458.957 22.8 2.826 33.924zm7.688 30.711v-10.514c0-3.864 1.362-7.626 3.835-10.594l28.112-33.734c2.809 10.508 6.46 20.756 10.936 30.646zm66.235 21.376 4.266-17.064h36.385l4.266 17.064zm107.316-42.484c2.473 2.968 3.835 6.73 3.835 10.594v10.514l-42.883-24.197c4.475-9.89 8.127-20.137 10.936-30.646zm-84.858-211.807c12.595 13.539 22.983 29.063 30.878 45.872h-61.756c7.895-16.809 18.283-32.333 30.878-45.872zm-37.128 60.871h74.255c7.499 20.445 11.485 42.364 11.485 64.645 0 34.488-9.278 67.833-26.872 96.71h-43.481c-17.594-28.877-26.872-62.222-26.872-96.71 0-22.281 3.987-44.199 11.485-64.645z" fill="#ffffff" data-original="#000000" style=""/>
        <path d="m287.548 151.79c0-17.396-14.152-31.548-31.548-31.548s-31.548 14.153-31.548 31.548 14.152 31.548 31.548 31.548 31.548-14.152 31.548-31.548zm-48.096 0c0-9.125 7.423-16.548 16.548-16.548s16.548 7.424 16.548 16.548-7.423 16.548-16.548 16.548-16.548-7.423-16.548-16.548z" fill="#ffffff" data-original="#000000" style=""/>
    </symbol>
</svg>